<?xml version="1.0" standalone="no"?>
<!DOCTYPE svg PUBLIC "-//W3C//DTD SVG 20010904//EN"
 "http://www.w3.org/TR/2001/REC-SVG-20010904/DTD/svg10.dtd">
<svg version="1.0" xmlns="http://www.w3.org/2000/svg"
 width="129.000000pt" height="129.000000pt" viewBox="0 0 129.000000 129.000000"
 preserveAspectRatio="xMidYMid meet">

<g transform="translate(0.000000,129.000000) scale(0.100000,-0.100000)"
fill="#000000" stroke="none">
<path d="M677 1100 c-41 -12 -127 -70 -127 -85 0 -18 -26 -26 -57 -19 -18 5
-24 3 -19 -5 11 -18 51 -13 80 10 15 12 37 19 53 17 26 -3 28 -7 28 -44 0 -51
26 -84 67 -84 67 0 90 77 38 130 -36 37 -36 37 -8 67 l21 23 -24 -1 c-13 0
-37 -5 -52 -9z"/>
<path d="M884 1015 c-18 -14 -18 -16 -2 -25 23 -14 48 -40 48 -49 0 -11 -68
-57 -103 -70 -47 -18 -109 -12 -165 14 -64 30 -94 31 -147 6 -53 -25 -85 -57
-144 -145 -59 -87 -82 -104 -164 -118 l-62 -11 40 -18 c22 -9 51 -21 64 -26
22 -8 18 -12 -55 -50 -43 -23 -98 -47 -121 -54 -24 -7 -43 -16 -43 -21 0 -21
193 18 260 52 22 11 40 18 40 14 0 -3 25 17 57 46 67 61 185 123 268 140 41 9
100 10 191 5 152 -8 197 1 251 48 34 30 63 81 63 109 -1 7 -8 -3 -16 -22 -18
-43 -49 -77 -89 -98 -24 -13 -67 -17 -225 -19 -107 -1 -208 -2 -224 -3 -38 -1
-42 5 -26 36 22 41 60 55 129 48 83 -9 137 12 195 77 l44 49 12 -35 c12 -36
17 -39 44 -29 23 9 20 27 -10 55 -15 13 -35 43 -46 67 -20 45 -33 51 -64 27z"/>
<path d="M390 923 c-38 -7 -183 -79 -204 -101 -16 -18 -8 -17 60 10 42 16 111
36 153 43 84 15 151 36 151 47 0 8 -116 9 -160 1z"/>
<path d="M1211 874 c10 -34 5 -74 -17 -140 -3 -11 3 -5 15 11 25 37 30 135 7
154 -13 11 -13 7 -5 -25z"/>
<path d="M1180 814 c-28 -73 -45 -96 -89 -122 -43 -25 -55 -27 -216 -33 -176
-6 -224 -16 -303 -62 -66 -38 -140 -97 -169 -135 -27 -36 -26 -36 27 10 47 41
155 108 175 108 11 0 -6 -43 -35 -85 -45 -67 -45 -69 -21 -56 38 21 151 133
157 157 3 12 13 26 22 29 10 4 87 10 172 14 177 8 215 20 260 83 26 36 47 104
36 115 -3 3 -10 -7 -16 -23z"/>
<path d="M534 630 c-75 -38 -130 -80 -164 -125 -8 -11 11 4 43 33 33 28 96 70
140 92 45 22 77 40 71 40 -7 0 -47 -18 -90 -40z"/>
<path d="M430 256 c0 -71 3 -86 15 -86 13 0 15 14 13 82 -2 54 -7 83 -15 86
-10 3 -13 -18 -13 -82z"/>
<path d="M500 255 c0 -50 4 -85 10 -85 6 0 10 16 10 35 0 34 1 35 40 35 37 0
39 -2 46 -35 8 -45 32 -48 26 -2 -2 17 -9 37 -14 44 -5 7 -5 14 2 18 17 11 11
54 -9 65 -11 5 -40 10 -65 10 l-46 0 0 -85z m100 50 c19 -22 -5 -45 -46 -45
-31 0 -34 3 -34 30 0 27 3 30 34 30 18 0 39 -7 46 -15z"/>
<path d="M687 273 c-14 -38 -29 -76 -33 -85 -10 -28 15 -21 28 7 9 19 19 25
44 25 27 0 35 -5 40 -25 3 -14 13 -25 21 -25 10 0 13 6 8 18 -4 9 -18 47 -32
85 -14 37 -31 67 -38 67 -6 0 -24 -30 -38 -67z m57 -10 c6 -20 4 -23 -18 -23
-30 0 -29 -2 -15 40 12 34 19 30 33 -17z"/>
</g>
</svg>
